HIERARCHY
ROOT hip
{
  OFFSET 0.00112043 5.09927 -9.65472
  CHANNELS 6 Xposition Yposition Zposition Zrotation Xrotation Yrotation
  JOINT abdomen
  {
    OFFSET 0 -1.186 -1.5018
    CHANNELS 3 Zrotation Xrotation Yrotation
    JOINT abdomen2
    {
      OFFSET 0 9.964 0.2134
      CHANNELS 3 Zrotation Xrotation Yrotation
      JOINT chest
      {
        OFFSET 0 13.134 -3.2573
        CHANNELS 3 Zrotation Xrotation Yrotation
        JOINT neck
        {
          OFFSET 0 20.686 -1.6905
          CHANNELS 3 Zrotation Xrotation Yrotation
          JOINT head
          {
            OFFSET 0 7.238 -0.1237
            CHANNELS 3 Zrotation Xrotation Yrotation
            End Site
            {
              OFFSET 0 0 0
            }
          }
        }
        JOINT lCollar
        {
          OFFSET 1.7069 20.075 5.0056
          CHANNELS 3 Zrotation Xrotation Yrotation
          JOINT lShldr
          {
            OFFSET 13.6458 -0.047 -4.849
            CHANNELS 3 Zrotation Xrotation Yrotation
            JOINT lForeArm
            {
              OFFSET 28.3255 -0.9759 2.2888
              CHANNELS 3 Zrotation Xrotation Yrotation
              JOINT lHand
              {
                OFFSET 22.1583 -0.53 10.8316
                CHANNELS 3 Zrotation Xrotation Yrotation
                JOINT lThumb1
                {
                  OFFSET 0.786 0.112 2.5817
                  CHANNELS 3 Zrotation Xrotation Yrotation
                  JOINT lThumb2
                  {
                    OFFSET 0.3601 -0.878 4.2331
                    CHANNELS 3 Zrotation Xrotation Yrotation
                    JOINT lThumb2_End
                    {
                      OFFSET 1.8127 -1.216 2.2227
                      CHANNELS 3 Zrotation Xrotation Yrotation
                      End Site
                      {
                        OFFSET 0.0181 -0.0122 0.0222
                      }
                    }
                  }
                }
                JOINT lCarpal1
                {
                  OFFSET 0.9571 1.114 1.7695
                  CHANNELS 3 Zrotation Xrotation Yrotation
                  JOINT lIndex1
                  {
                    OFFSET 4.1246 0.487 4.1451
                    CHANNELS 3 Zrotation Xrotation Yrotation
                    JOINT lIndex2
                    {
                      OFFSET 3.4052 -1.454 2.7682
                      CHANNELS 3 Zrotation Xrotation Yrotation
                      JOINT lIndex2_End
                      {
                        OFFSET 1.4531 -1.795 1.2713
                        CHANNELS 3 Zrotation Xrotation Yrotation
                        End Site
                        {
                          OFFSET 0.0145 -0.0179 0.0127
                        }
                      }
                    }
                  }
                  JOINT lMid1
                  {
                    OFFSET 5.6954 0.21 2.1184
                    CHANNELS 3 Zrotation Xrotation Yrotation
                    JOINT lMid2
                    {
                      OFFSET 3.9766 -1.54 2.3863
                      CHANNELS 3 Zrotation Xrotation Yrotation
                      JOINT lMid2_End
                      {
                        OFFSET 1.4042 -1.926 1.125
                        CHANNELS 3 Zrotation Xrotation Yrotation
                        End Site
                        {
                          OFFSET 0.014 -0.0193 0.0113
                        }
                      }
                    }
                  }
                }
                JOINT lCarpal2
                {
                  OFFSET 2.0956 0.66 -0.3894
                  CHANNELS 3 Zrotation Xrotation Yrotation
                  JOINT lRing1
                  {
                    OFFSET 5.0395 -0.09 2.4971
                    CHANNELS 3 Zrotation Xrotation Yrotation
                    JOINT lRing2
                    {
                      OFFSET 3.7921 -1.552 1.4806
                      CHANNELS 3 Zrotation Xrotation Yrotation
                      JOINT lRing2_End
                      {
                        OFFSET 1.4655 -1.808 0.9609
                        CHANNELS 3 Zrotation Xrotation Yrotation
                        End Site
                        {
                          OFFSET 0.0147 -0.0181 0.0096
                        }
                      }
                    }
                  }
                  JOINT lPinky1
                  {
                    OFFSET 4.9141 -1.269 0.3591
                    CHANNELS 3 Zrotation Xrotation Yrotation
                    JOINT lPinky2
                    {
                      OFFSET 3.1477 -1.685 0.8462
                      CHANNELS 3 Zrotation Xrotation Yrotation
                      JOINT lPinky2_End
                      {
                        OFFSET 0.8055 -1.585 0.7955
                        CHANNELS 3 Zrotation Xrotation Yrotation
                        End Site
                        {
                          OFFSET 0.0081 -0.0158 0.008
                        }
                      }
                    }
                  }
                }
              }
            }
          }
        }
        JOINT rCollar
        {
          OFFSET -1.7069 20.075 5.0056
          CHANNELS 3 Zrotation Xrotation Yrotation
          JOINT rShldr
          {
            OFFSET -13.6458 -0.047 -4.849
            CHANNELS 3 Zrotation Xrotation Yrotation
            JOINT rForeArm
            {
              OFFSET -28.3255 -0.9759 2.2888
              CHANNELS 3 Zrotation Xrotation Yrotation
              JOINT rHand
              {
                OFFSET -22.1583 -0.53 10.8316
                CHANNELS 3 Zrotation Xrotation Yrotation
                JOINT rThumb1
                {
                  OFFSET -0.786 0.112 2.5817
                  CHANNELS 3 Zrotation Xrotation Yrotation
                  JOINT rThumb2
                  {
                    OFFSET -0.3601 -0.878 4.2331
                    CHANNELS 3 Zrotation Xrotation Yrotation
                    JOINT rThumb2_End
                    {
                      OFFSET -1.8127 -1.216 2.2227
                      CHANNELS 3 Zrotation Xrotation Yrotation
                      End Site
                      {
                        OFFSET -0.0181 -0.0122 0.0222
                      }
                    }
                  }
                }
                JOINT rCarpal1
                {
                  OFFSET -0.9571 1.114 1.7695
                  CHANNELS 3 Zrotation Xrotation Yrotation
                  JOINT rIndex1
                  {
                    OFFSET -4.1246 0.487 4.1451
                    CHANNELS 3 Zrotation Xrotation Yrotation
                    JOINT rIndex2
                    {
                      OFFSET -3.4052 -1.454 2.7682
                      CHANNELS 3 Zrotation Xrotation Yrotation
                      JOINT rIndex2_End
                      {
                        OFFSET -1.4531 -1.795 1.2713
                        CHANNELS 3 Zrotation Xrotation Yrotation
                        End Site
                        {
                          OFFSET -0.0145 -0.018 0.0127
                        }
                      }
                    }
                  }
                  JOINT rMid1
                  {
                    OFFSET -5.6954 0.21 2.1184
                    CHANNELS 3 Zrotation Xrotation Yrotation
                    JOINT rMid2
                    {
                      OFFSET -3.9766 -1.54 2.3863
                      CHANNELS 3 Zrotation Xrotation Yrotation
                      JOINT rMid2_End
                      {
                        OFFSET -1.4042 -1.926 1.125
                        CHANNELS 3 Zrotation Xrotation Yrotation
                        End Site
                        {
                          OFFSET -0.014 -0.0193 0.0113
                        }
                      }
                    }
                  }
                }
                JOINT rCarpal2
                {
                  OFFSET -2.0956 0.66 -0.3894
                  CHANNELS 3 Zrotation Xrotation Yrotation
                  JOINT rRing1
                  {
                    OFFSET -5.0395 -0.09 2.4971
                    CHANNELS 3 Zrotation Xrotation Yrotation
                    JOINT rRing2
                    {
                      OFFSET -3.7921 -1.552 1.4806
                      CHANNELS 3 Zrotation Xrotation Yrotation
                      JOINT rRing2_End
                      {
                        OFFSET -1.4655 -1.808 0.9609
                        CHANNELS 3 Zrotation Xrotation Yrotation
                        End Site
                        {
                          OFFSET -0.0147 -0.0181 0.0096
                        }
                      }
                    }
                  }
                  JOINT rPinky1
                  {
                    OFFSET -4.9141 -1.269 0.3592
                    CHANNELS 3 Zrotation Xrotation Yrotation
                    JOINT rPinky2
                    {
                      OFFSET -3.1477 -1.685 0.8462
                      CHANNELS 3 Zrotation Xrotation Yrotation
                      JOINT rPinky2_End
                      {
                        OFFSET -0.8055 -1.585 0.7955
                        CHANNELS 3 Zrotation Xrotation Yrotation
                        End Site
                        {
                          OFFSET -0.0081 -0.0158 0.008
                        }
                      }
                    }
                  }
                }
              }
            }
          }
        }
      }
    }
  }
  JOINT lThigh
  {
    OFFSET 8.367 -8.2066 0.5982
    CHANNELS 3 Zrotation Xrotation Yrotation
    JOINT lShin
    {
      OFFSET 2.1923 -43.463 -0.4932
      CHANNELS 3 Zrotation Xrotation Yrotation
      JOINT lFoot
      {
        OFFSET 0.7333 -45.8593 -2.6451
        CHANNELS 3 Zrotation Xrotation Yrotation
        End Site
        {
          OFFSET 2.6618 -4.2699 12.3931
        }
      }
    }
  }
  JOINT rThigh
  {
    OFFSET -8.367 -8.2066 0.5982
    CHANNELS 3 Zrotation Xrotation Yrotation
    JOINT rShin
    {
      OFFSET -2.1923 -43.463 -0.4931
      CHANNELS 3 Zrotation Xrotation Yrotation
      JOINT rFoot
      {
        OFFSET -0.7333 -45.8593 -2.6451
        CHANNELS 3 Zrotation Xrotation Yrotation
        End Site
        {
          OFFSET -2.6618 -4.2699 12.3931
        }
      }
    }
  }
}
MOTION
Frames:	4
Frame Time:	0.0333333
1.73309 44.3421 5.95448 0 17.024 -0 0.2376 0.518871 -0.259893 0.477581 1.03669 -0.521969 0.477582 1.03669 -0.52197 -3.83875e-005 13.1746 2.60849e-005 -2.44139e-007 -5.44173 3.68252e-008 -5.84661 2.73706 -33.8291 -47.5921 -4.37921 32.6455 -23.8083 27.3487 -61.2217 32.9875 -34.2347 -2.03653 -4.96962e-016 3.97569e-016 -3.18055e-015 -9.93923e-017 3.97569e-016 -0 1.09332e-015 5.96354e-016 -3.18055e-015 -1.19271e-015 1.98785e-016 -0 2.98177e-016 1.98785e-016 6.36111e-015 1.19271e-015 3.97569e-016 -6.36111e-015 1.88845e-015 0 -3.18055e-015 2.98177e-016 1.98785e-016 6.36111e-015 1.19271e-015 3.97569e-016 -6.36111e-015 1.88845e-015 0 -3.18055e-015 -1.19271e-015 1.98785e-016 -0 2.98177e-016 1.98785e-016 6.36111e-015 1.19271e-015 3.97569e-016 -6.36111e-015 1.88845e-015 0 -3.18055e-015 2.98177e-016 1.98785e-016 6.36111e-015 1.19271e-015 3.97569e-016 -6.36111e-015 1.88845e-015 0 -3.18055e-015 4.41756 2.81591 33.1181 45.9551 -3.95438 -30.7422 23.2135 25.5917 60.4318 -29.6652 -34.5423 2.37826 3.97569e-016 -3.97569e-016 3.18055e-015 0 0 -0 0 0 -0 3.97569e-016 -3.97569e-016 3.18055e-015 1.59028e-015 1.19271e-015 1.59028e-014 -1.98785e-016 0 -0 -3.97569e-016 3.97569e-016 -0 1.59028e-015 1.19271e-015 1.59028e-014 -1.98785e-016 0 -0 -3.97569e-016 3.97569e-016 -0 3.97569e-016 -3.97569e-016 3.18055e-015 1.59028e-015 1.19271e-015 1.59028e-014 -1.98785e-016 0 -0 -3.97569e-016 3.97569e-016 -0 1.59028e-015 1.19271e-015 1.59028e-014 -1.98785e-016 0 -0 -3.97569e-016 3.97569e-016 -0 8.57531 -23.8856 17.3399 149.559 85.0704 -145.205 -23.391 55.6754 31.8072 -8.5176 -23.4357 -17.3293 -148.185 85.2098 143.862 23.6296 55.7868 -31.9203 
1.73308 44.3214 5.87855 0 17.375 -0 0.238545 0.381872 -0.259079 0.47883 0.762666 -0.519762 0.478829 0.762667 -0.519762 -0.00019854 13.8787 0.000162833 -1.38456e-007 -5.24907 2.99507e-007 -5.95284 2.97613 -33.7486 -47.5286 -4.35983 32.6051 -23.8083 27.3487 -61.2217 32.9274 -34.1716 -1.94856 -2.98177e-016 -1.98785e-016 -0 1.19271e-015 -1.98785e-016 3.18055e-015 2.98177e-016 3.97569e-016 3.18055e-015 5.96354e-016 3.97569e-016 3.18055e-015 2.28602e-015 -1.19271e-015 6.36111e-015 -1.09332e-015 0 3.18055e-015 -4.96962e-016 0 3.18055e-015 2.28602e-015 -1.19271e-015 6.36111e-015 -1.09332e-015 0 3.18055e-015 -4.96962e-016 0 3.18055e-015 5.96354e-016 3.97569e-016 3.18055e-015 2.28602e-015 -1.19271e-015 6.36111e-015 -1.09332e-015 0 3.18055e-015 -4.96962e-016 0 3.18055e-015 2.28602e-015 -1.19271e-015 6.36111e-015 -1.09332e-015 0 3.18055e-015 -4.96962e-016 0 3.18055e-015 4.57494 3.05228 33.0653 45.9551 -3.95438 -30.7422 23.2135 25.5916 60.4318 -29.726 -34.4773 2.24316 -8.94531e-015 7.15625e-015 -0 -1.21259e-014 6.36111e-015 3.18055e-015 -1.21259e-014 6.75868e-015 6.36111e-015 5.96354e-016 0 -0 -1.03368e-014 5.56597e-015 9.54166e-015 -1.21259e-014 6.75868e-015 3.18055e-015 -1.03368e-014 7.15625e-015 -0 -1.03368e-014 5.56597e-015 9.54166e-015 -1.21259e-014 6.75868e-015 3.18055e-015 -1.03368e-014 7.15625e-015 -0 5.96354e-016 0 -0 -1.03368e-014 5.56597e-015 9.54166e-015 -1.21259e-014 6.75868e-015 3.18055e-015 -1.03368e-014 7.15625e-015 -0 -1.03368e-014 5.56597e-015 9.54166e-015 -1.21259e-014 6.75868e-015 3.18055e-015 -1.03368e-014 7.15625e-015 -0 8.63216 -24.3981 17.4458 150.349 84.9226 -145.984 -23.4035 55.6858 31.8237 -8.5726 -23.948 -17.4336 -149.049 85.0619 144.714 23.6423 55.7973 -31.937 
1.73306 44.3005 5.80246 0 17.7259 -0 0.239436 0.24479 -0.258199 0.47998 0.488498 -0.517425 0.479981 0.488497 -0.517426 4.47467e-006 14.5838 -8.53047e-006 2.0037e-007 -5.05649 -2.54176e-007 -6.05914 3.21549 -33.6678 -47.4651 -4.34048 32.5646 -23.8083 27.3487 -61.2217 32.8672 -34.1085 -1.86053 -3.97569e-016 -1.98785e-016 -3.18055e-015 -1.49089e-015 -3.97569e-016 -3.18055e-015 -1.49089e-015 1.98785e-016 -6.36111e-015 3.97569e-016 -1.98785e-016 -3.18055e-015 5.96354e-016 -5.96354e-016 3.18055e-015 -2.18663e-015 0 -0 -1.49089e-015 1.98785e-016 3.18055e-015 5.96354e-016 -5.96354e-016 3.18055e-015 -2.18663e-015 0 -0 -1.49089e-015 1.98785e-016 3.18055e-015 3.97569e-016 -1.98785e-016 -3.18055e-015 5.96354e-016 -5.96354e-016 3.18055e-015 -2.18663e-015 0 -0 -1.49089e-015 1.98785e-016 3.18055e-015 5.96354e-016 -5.96354e-016 3.18055e-015 -2.18663e-015 0 -0 -1.49089e-015 1.98785e-016 3.18055e-015 4.73287 3.28889 33.0115 45.9551 -3.95437 -30.7422 23.2135 25.5916 60.4318 -29.7866 -34.4122 2.10823 -6.28388e-007 4.99843e-008 2.00289e-007 -2.78299e-015 0 3.18055e-015 -1.19271e-015 -3.97569e-016 -0 1.19271e-015 3.97569e-016 -6.36111e-015 -6.28388e-007 4.99843e-008 2.00289e-007 -2.18663e-015 0 -0 -1.78906e-015 0 -0 -6.28388e-007 4.99843e-008 2.00289e-007 -2.18663e-015 0 -0 -1.78906e-015 0 -0 1.19271e-015 3.97569e-016 -6.36111e-015 -6.28388e-007 4.99843e-008 2.00289e-007 -2.18663e-015 0 -0 -1.78906e-015 0 -0 -6.28388e-007 4.99843e-008 2.00289e-007 -2.18663e-015 0 -0 -1.78906e-015 0 -0 8.69 -24.9111 17.5526 151.097 84.7735 -146.721 -23.416 55.6961 31.8402 -8.6287 -24.4601 -17.5389 -149.862 84.9131 145.516 23.655 55.8078 -31.9537 
1.73305 44.2795 5.72625 0 18.0768 -0 0.24037 0.107758 -0.257345 0.481223 0.214456 -0.515142 0.481222 0.214438 -0.515141 -5.64577e-005 15.2869 4.80199e-005 -2.70336e-008 -4.864 -3.88033e-007 -6.16601 3.45441 -33.5864 -47.4015 -4.32119 32.5241 -23.8083 27.3487 -61.2217 32.8069 -34.0456 -1.77252 -9.93923e-016 -1.98785e-016 -0 -2.18663e-015 -1.98785e-016 3.18055e-015 -1.88845e-015 3.97569e-016 -0 -1.98785e-016 -5.96354e-016 -0 -6.95746e-016 -7.95139e-016 9.54166e-015 -6.95746e-016 -7.95139e-016 -0 -2.98177e-016 -1.98785e-016 3.18055e-015 -6.95746e-016 -7.95139e-016 9.54166e-015 -6.95746e-016 -7.95139e-016 -0 -2.98177e-016 -1.98785e-016 3.18055e-015 -1.98785e-016 -5.96354e-016 -0 -6.95746e-016 -7.95139e-016 9.54166e-015 -6.95746e-016 -7.95139e-016 -0 -2.98177e-016 -1.98785e-016 3.18055e-015 -6.95746e-016 -7.95139e-016 9.54166e-015 -6.95746e-016 -7.95139e-016 -0 -2.98177e-016 -1.98785e-016 3.18055e-015 4.89083 3.5251 32.9574 45.9551 -3.95439 -30.7422 23.2135 25.5916 60.4318 -29.8469 -34.347 1.97352 -1.59028e-015 -3.97569e-016 9.54166e-015 -1.78906e-015 -1.19271e-015 1.27222e-014 -7.95139e-016 -7.95139e-016 1.27222e-014 -1.59028e-015 -7.95139e-016 9.54166e-015 -2.5842e-015 -1.19271e-015 2.22639e-014 6.62086e-032 -3.97569e-016 9.54166e-015 -9.93923e-016 0 6.36111e-015 -2.5842e-015 -1.19271e-015 2.22639e-014 6.62086e-032 -3.97569e-016 9.54166e-015 -9.93923e-016 0 6.36111e-015 -1.59028e-015 -7.95139e-016 9.54166e-015 -2.5842e-015 -1.19271e-015 2.22639e-014 6.62086e-032 -3.97569e-016 9.54166e-015 -9.93923e-016 0 6.36111e-015 -2.5842e-015 -1.19271e-015 2.22639e-014 6.62086e-032 -3.97569e-016 9.54166e-015 -9.93923e-016 0 6.36111e-015 8.74915 -25.4233 17.6605 151.801 84.6241 -147.413 -23.4287 55.7066 31.8567 -8.68604 -24.9717 -17.6452 -150.627 84.7636 146.27 23.6678 55.8183 -31.9705 
